<svg version="1.1" viewBox="0.0 0.0 1024.0 768.0" fill="none" stroke="none" stroke-linecap="square" stroke-miterlimit="10" xmlns:xlink="http://www.w3.org/1999/xlink" xmlns="http://www.w3.org/2000/svg"><clipPath id="p.0"><path d="m0 0l1024.0 0l0 768.0l-1024.0 0l0 -768.0z" clip-rule="nonzero"/></clipPath><g clip-path="url(#p.0)"><path fill="#000000" fill-opacity="0.0" d="m0 0l1024.0 0l0 768.0l-1024.0 0z" fill-rule="evenodd"/><path fill="#86da2f" d="m18.580593 57.454277c-1.6594944 -11.552658 3.7887821 -22.989113 14.03294 -29.456484c10.244156 -6.467369 23.487602 -6.831421 34.110687 -0.9376774l0 0c3.7628174 -6.7176704 10.650101 -11.355779 18.578499 -12.511326c7.9283905 -1.1555462 15.966629 1.3072004 21.683182 6.6432724l0 0c3.2055283 -6.0905647 9.499748 -10.182658 16.649109 -10.8241625c7.149353 -0.6415043 14.142014 2.2583714 18.496567 7.670579l0 0c5.791397 -6.4556093 15.005585 -9.173659 23.655563 -6.9780445c8.649979 2.1956139 15.182144 8.910545 16.77002 17.23923l0 0c7.095108 1.833456 13.005188 6.494278 16.203262 12.778267c3.1980743 6.283993 3.370453 13.574718 0.4725647 19.98851c6.987152 8.614399 8.621704 20.093098 4.2936707 30.152386c-4.328018 10.059288 -13.968384 17.187843 -25.32341 18.725372c-0.08003235 9.441322 -5.545578 18.104553 -14.289963 22.650436c-8.7443695 4.5458984 -19.40207 4.264572 -27.865067 -0.73553467c-3.6048584 11.307571 -13.751495 19.627594 -26.056145 21.365463c-12.304649 1.7378693 -24.561424 -3.417984 -31.474892 -13.23999l0 0c-8.474411 4.8412323 -18.643044 6.23584 -28.212025 3.8692627c-9.568977 -2.3665924 -17.732243 -8.295029 -22.648298 -16.447983l0 0c-8.659727 0.9600525 -17.032509 -3.2903595 -20.96299 -10.641792c-3.9304829 -7.351425 -2.5819688 -16.238937 3.3762836 -22.251724l0 0c-7.7251177 -4.3072815 -11.666953 -12.854393 -9.769987 -21.18435c1.896966 -8.329948 9.202872 -14.555138 18.107964 -15.429356z" fill-rule="evenodd"/><path fill="#86da2f" d="m64.188354 171.38846c0 2.2033386 -1.7861633 3.989502 -3.989502 3.989502c-2.2033424 0 -3.989502 -1.7861633 -3.989502 -3.989502c0 -2.203354 1.7861595 -3.989502 3.989502 -3.989502c2.2033386 0 3.989502 1.7861481 3.989502 3.989502z" fill-rule="evenodd"/><path fill="#86da2f" d="m70.48378 166.57454c0 4.4066772 -3.5723267 7.979004 -7.979004 7.979004c-4.406681 0 -7.979004 -3.5723267 -7.979004 -7.979004c0 -4.4066772 3.5723228 -7.979004 7.979004 -7.979004c4.4066772 0 7.979004 3.5723267 7.979004 7.979004z" fill-rule="evenodd"/><path fill="#86da2f" d="m80.22619 154.5646l0 0c0 6.610031 -5.3584824 11.968506 -11.968498 11.968506c-6.6100273 0 -11.968506 -5.3584747 -11.968506 -11.968506c0 -6.610016 5.3584785 -11.968506 11.968506 -11.968506c6.610016 0 11.968498 5.35849 11.968498 11.968506z" fill-rule="evenodd"/><path fill="#000000" fill-opacity="0.0" d="m22.359318 96.59727l0 0c-4.211828 0.31233215 -8.423199 -0.60970306 -12.068675 -2.6423035m22.71687 31.558212c-1.6936588 0.63866425 -3.4689865 1.0638733 -5.280197 1.2646713m50.777973 12.629562l0 0c-1.2738495 -1.8097687 -2.3403778 -3.7436523 -3.1814117 -5.7687073m62.015648 -8.616234c-0.1873169 2.1465454 -0.6131134 4.268257 -1.2703247 6.32975m26.52948 -45.43923l0 0c9.548904 4.402092 15.57489 13.605347 15.489685 23.656807m21.047165 -48.8529c-1.5464325 3.4226646 -3.9072418 6.4588737 -6.8973083 8.8705635m-9.653748 -41.78515l0 0c0.26350403 1.3821774 0.38546753 2.7851295 0.36416626 4.1894093m-44.413742 -9.076149l0 0c0.89871216 -1.9327431 2.0889435 -3.7323189 3.5336304 -5.3426933m-36.582428 7.8883953l0 0c0.3666458 -1.5972271 0.94151306 -3.1450233 1.7113571 -4.6077347m-40.497894 6.173214l0 0c2.2478333 1.2471085 4.327385 2.7481422 6.192978 4.470127m-53.230103 30.662218l0 0c-0.49068832 -1.5383072 -0.8520889 -3.1109695 -1.0808163 -4.7032623" fill-rule="evenodd"/><path stroke="#000000" stroke-width="1.0" stroke-linejoin="round" stroke-linecap="butt" d="m18.580593 57.454277c-1.6594944 -11.552658 3.7887821 -22.989113 14.03294 -29.456484c10.244156 -6.467369 23.487602 -6.831421 34.110687 -0.9376774l0 0c3.7628174 -6.7176704 10.650101 -11.355779 18.578499 -12.511326c7.9283905 -1.1555462 15.966629 1.3072004 21.683182 6.6432724l0 0c3.2055283 -6.0905647 9.499748 -10.182658 16.649109 -10.8241625c7.149353 -0.6415043 14.142014 2.2583714 18.496567 7.670579l0 0c5.791397 -6.4556093 15.005585 -9.173659 23.655563 -6.9780445c8.649979 2.1956139 15.182144 8.910545 16.77002 17.23923l0 0c7.095108 1.833456 13.005188 6.494278 16.203262 12.778267c3.1980743 6.283993 3.370453 13.574718 0.4725647 19.98851c6.987152 8.614399 8.621704 20.093098 4.2936707 30.152386c-4.328018 10.059288 -13.968384 17.187843 -25.32341 18.725372c-0.08003235 9.441322 -5.545578 18.104553 -14.289963 22.650436c-8.7443695 4.5458984 -19.40207 4.264572 -27.865067 -0.73553467c-3.6048584 11.307571 -13.751495 19.627594 -26.056145 21.365463c-12.304649 1.7378693 -24.561424 -3.417984 -31.474892 -13.23999l0 0c-8.474411 4.8412323 -18.643044 6.23584 -28.212025 3.8692627c-9.568977 -2.3665924 -17.732243 -8.295029 -22.648298 -16.447983l0 0c-8.659727 0.9600525 -17.032509 -3.2903595 -20.96299 -10.641792c-3.9304829 -7.351425 -2.5819688 -16.238937 3.3762836 -22.251724l0 0c-7.7251177 -4.3072815 -11.666953 -12.854393 -9.769987 -21.18435c1.896966 -8.329948 9.202872 -14.555138 18.107964 -15.429356z" fill-rule="evenodd"/><path stroke="#000000" stroke-width="1.0" stroke-linejoin="round" stroke-linecap="butt" d="m64.188354 171.38846c0 2.2033386 -1.7861633 3.989502 -3.989502 3.989502c-2.2033424 0 -3.989502 -1.7861633 -3.989502 -3.989502c0 -2.203354 1.7861595 -3.989502 3.989502 -3.989502c2.2033386 0 3.989502 1.7861481 3.989502 3.989502z" fill-rule="evenodd"/><path stroke="#000000" stroke-width="1.0" stroke-linejoin="round" stroke-linecap="butt" d="m70.48378 166.57454c0 4.4066772 -3.5723267 7.979004 -7.979004 7.979004c-4.406681 0 -7.979004 -3.5723267 -7.979004 -7.979004c0 -4.4066772 3.5723228 -7.979004 7.979004 -7.979004c4.4066772 0 7.979004 3.5723267 7.979004 7.979004z" fill-rule="evenodd"/><path stroke="#000000" stroke-width="1.0" stroke-linejoin="round" stroke-linecap="butt" d="m80.22619 154.5646l0 0c0 6.610031 -5.3584824 11.968506 -11.968498 11.968506c-6.6100273 0 -11.968506 -5.3584747 -11.968506 -11.968506c0 -6.610016 5.3584785 -11.968506 11.968506 -11.968506c6.610016 0 11.968498 5.35849 11.968498 11.968506z" fill-rule="evenodd"/><path stroke="#000000" stroke-width="1.0" stroke-linejoin="round" stroke-linecap="butt" d="m22.359318 96.59727l0 0c-4.211828 0.31233215 -8.423199 -0.60970306 -12.068675 -2.6423035m22.71687 31.558212c-1.6936588 0.63866425 -3.4689865 1.0638733 -5.280197 1.2646713m50.777973 12.629562l0 0c-1.2738495 -1.8097687 -2.3403778 -3.7436523 -3.1814117 -5.7687073m62.015648 -8.616234c-0.1873169 2.1465454 -0.6131134 4.268257 -1.2703247 6.32975m26.52948 -45.43923l0 0c9.548904 4.402092 15.57489 13.605347 15.489685 23.656807m21.047165 -48.8529c-1.5464325 3.4226646 -3.9072418 6.4588737 -6.8973083 8.8705635m-9.653748 -41.78515l0 0c0.26350403 1.3821774 0.38546753 2.7851295 0.36416626 4.1894093m-44.413742 -9.076149l0 0c0.89871216 -1.9327431 2.0889435 -3.7323189 3.5336304 -5.3426933m-36.582428 7.8883953l0 0c0.3666458 -1.5972271 0.94151306 -3.1450233 1.7113571 -4.6077347m-40.497894 6.173214l0 0c2.2478333 1.2471085 4.327385 2.7481422 6.192978 4.470127m-53.230103 30.662218l0 0c-0.49068832 -1.5383072 -0.8520889 -3.1109695 -1.0808163 -4.7032623" fill-rule="evenodd"/><path fill="#000000" fill-opacity="0.0" d="m10.645669 45.207348l185.10236 0l0 69.133865l-185.10236 0z" fill-rule="evenodd"/><path fill="#faf5f5" d="m49.626244 72.12735l0 -13.359379l2.703125 0l0 5.265629l5.28125 0l0 -5.265629l2.703125 0l0 13.359379l-2.703125 0l0 -5.84375l-5.28125 0l0 5.84375l-2.703125 0zm25.519821 0l-2.9375 0l-1.171875 -3.03125l-5.328125 0l-1.109375 3.03125l-2.859375 0l5.203125 -13.359379l2.84375 0l5.359375 13.359379zm-4.96875 -5.28125l-1.84375 -4.953129l-1.796875 4.953129l3.640625 0zm6.394821 5.28125l0 -13.359379l5.6875 0q2.140625 0 3.109375 0.359375q0.96875 0.359375 1.546875 1.28125q0.578125 0.921875 0.578125 2.109375q0 1.5000038 -0.890625 2.4843788q-0.875 0.96875 -2.625 1.234375q0.875 0.5 1.4375 1.125q0.578125 0.609375 1.53125 2.15625l1.640625 2.609375l-3.234375 0l-1.9375 -2.90625q-1.046875 -1.5625 -1.4375 -1.96875q-0.375 -0.40625 -0.8125 -0.546875q-0.421875 -0.15625 -1.34375 -0.15625l-0.546875 0l0 5.578125l-2.703125 0zm2.703125 -7.703125l2.0 0q1.9375 0 2.421875 -0.15625q0.484375 -0.171875 0.75 -0.5781288q0.28125 -0.40625 0.28125 -1.0q0 -0.671875 -0.359375 -1.078125q-0.359375 -0.421875 -1.015625 -0.53125q-0.328125 -0.046875 -1.96875 -0.046875l-2.109375 0l0 3.3906288zm10.754196 -5.656254l4.9375 0q1.65625 0 2.53125 0.265625q1.1875 0.34375 2.015625 1.234375q0.84375 0.875 1.28125 2.15625q0.4375 1.28125 0.4375 3.1562538q0 1.640625 -0.40625 2.84375q-0.5 1.453125 -1.4375 2.359375q-0.703125 0.671875 -1.890625 1.0625q-0.890625 0.28125 -2.390625 0.28125l-5.078125 0l0 -13.359379zm2.703125 2.265625l0 8.843754l2.015625 0q1.125 0 1.625 -0.125q0.65625 -0.171875 1.078125 -0.5625q0.4375 -0.390625 0.703125 -1.28125q0.28125 -0.90625 0.28125 -2.453125q0 -1.5468788 -0.28125 -2.3750038q-0.265625 -0.828125 -0.765625 -1.28125q-0.484375 -0.46875 -1.234375 -0.640625q-0.5625 -0.125 -2.21875 -0.125l-1.203125 0zm12.676071 11.093754l-3.1875 -13.359379l2.765625 0l2.015625 9.171879l2.4375 -9.171879l3.203125 0l2.34375 9.328129l2.046875 -9.328129l2.71875 0l-3.25 13.359379l-2.859375 0l-2.65625 -9.984379l-2.65625 9.984379l-2.921875 0zm26.734962 0l-2.9375 0l-1.171875 -3.03125l-5.3281326 0l-1.109375 3.03125l-2.859375 0l5.203125 -13.359379l2.84375 0l5.3593826 13.359379zm-4.9687576 -5.28125l-1.84375 -4.953129l-1.796875 4.953129l3.640625 0zm6.394829 5.28125l0 -13.359379l5.6875 0q2.140625 0 3.109375 0.359375q0.96875 0.359375 1.546875 1.28125q0.578125 0.921875 0.578125 2.109375q0 1.5000038 -0.890625 2.4843788q-0.875 0.96875 -2.625 1.234375q0.875 0.5 1.4375 1.125q0.578125 0.609375 1.53125 2.15625l1.640625 2.609375l-3.234375 0l-1.9375 -2.90625q-1.046875 -1.5625 -1.4375 -1.96875q-0.375 -0.40625 -0.8125 -0.546875q-0.421875 -0.15625 -1.34375 -0.15625l-0.546875 0l0 5.578125l-2.703125 0zm2.703125 -7.703125l2.0 0q1.9375 0 2.421875 -0.15625q0.484375 -0.171875 0.75 -0.5781288q0.28125 -0.40625 0.28125 -1.0q0 -0.671875 -0.359375 -1.078125q-0.359375 -0.421875 -1.015625 -0.53125q-0.328125 -0.046875 -1.96875 -0.046875l-2.109375 0l0 3.3906288zm10.769821 7.703125l0 -13.359379l9.90625 0l0 2.265625l-7.21875 0l0 2.953125l6.71875 0l0 2.2500038l-6.71875 0l0 3.640625l7.46875 0l0 2.25l-10.15625 0z" fill-rule="nonzero"/><path fill="#faf5f5" d="m71.90323 81.16797l5.34375 0q1.59375 0 2.359375 0.140625q0.78125 0.125 1.390625 0.546875q0.625 0.421875 1.03125 1.125q0.40625 0.6875 0.40625 1.546875q0 0.9375 -0.5 1.734375q-0.5 0.78125 -1.375 1.171875q1.21875 0.359375 1.875 1.21875q0.65625 0.84375 0.65625 2.0q0 0.921875 -0.421875 1.78125q-0.421875 0.859375 -1.15625 1.375q-0.734375 0.515625 -1.796875 0.625q-0.6875 0.078125 -3.265625 0.09375l-4.546875 0l0 -13.359375zm2.703125 2.234375l0 3.078125l1.765625 0q1.578125 0 1.953125 -0.046875q0.703125 -0.078125 1.09375 -0.46875q0.40625 -0.40625 0.40625 -1.046875q0 -0.625 -0.34375 -1.0q-0.34375 -0.390625 -1.015625 -0.484375q-0.40625 -0.03125 -2.3125 -0.03125l-1.546875 0zm0 5.296875l0 3.578125l2.5 0q1.453125 0 1.84375 -0.078125q0.609375 -0.109375 0.984375 -0.53125q0.375 -0.421875 0.375 -1.140625q0 -0.59375 -0.296875 -1.015625q-0.28125 -0.421875 -0.84375 -0.609375q-0.546875 -0.203125 -2.390625 -0.203125l-2.171875 0zm10.754196 -7.53125l2.6875 0l0 7.234375q0 1.71875 0.109375 2.234375q0.171875 0.828125 0.8125 1.328125q0.65625 0.484375 1.78125 0.484375q1.15625 0 1.734375 -0.46875q0.59375 -0.46875 0.703125 -1.140625q0.125 -0.6875 0.125 -2.28125l0 -7.390625l2.6875 0l0 7.015625q0 2.40625 -0.21875 3.40625q-0.21875 0.984375 -0.8125 1.671875q-0.578125 0.6875 -1.5625 1.09375q-0.984375 0.40625 -2.5625 0.40625q-1.921875 0 -2.90625 -0.4375q-0.984375 -0.453125 -1.5625 -1.15625q-0.578125 -0.703125 -0.75 -1.484375q-0.265625 -1.140625 -0.265625 -3.390625l0 -7.125zm16.988571 13.359375l0 -5.625l-4.890625 -7.734375l3.171875 0l3.140625 5.28125l3.078125 -5.28125l3.109375 0l-4.921875 7.75l0 5.609375l-2.6875 0zm8.943573 0l0 -13.359375l9.90625 0l0 2.265625l-7.21875 0l0 2.953125l6.71875 0l0 2.25l-6.71875 0l0 3.640625l7.46875 0l0 2.25l-10.15625 0zm12.443573 0l0 -13.359375l5.6875 0q2.140625 0 3.109375 0.359375q0.96875 0.359375 1.546875 1.28125q0.578125 0.921875 0.578125 2.109375q0 1.5 -0.890625 2.484375q-0.875 0.96875 -2.625 1.234375q0.875 0.5 1.4375 1.125q0.578125 0.609375 1.53125 2.15625l1.640625 2.609375l-3.234375 0l-1.9375 -2.90625q-1.046875 -1.5625 -1.4375 -1.96875q-0.375 -0.40625 -0.8125 -0.546875q-0.421875 -0.15625 -1.34375 -0.15625l-0.546875 0l0 5.578125l-2.703125 0zm2.703125 -7.703125l2.0 0q1.9375 0 2.421875 -0.15625q0.484375 -0.171875 0.75 -0.578125q0.28125 -0.40625 0.28125 -1.0q0 -0.671875 -0.359375 -1.078125q-0.359375 -0.421875 -1.015625 -0.53125q-0.328125 -0.046875 -1.96875 -0.046875l-2.109375 0l0 3.390625z" fill-rule="nonzero"/><path fill="#000000" fill-opacity="0.0" d="m11.709499 46.27118l185.10236 0l0 69.13386l-185.10236 0z" fill-rule="evenodd"/><path fill="#082336" d="m50.690075 73.19118l0 -13.359375l2.703125 0l0 5.265625l5.28125 0l0 -5.265625l2.703125 0l0 13.359375l-2.703125 0l0 -5.84375l-5.28125 0l0 5.84375l-2.703125 0zm25.519817 0l-2.9375 0l-1.171875 -3.03125l-5.328125 0l-1.109375 3.03125l-2.8593712 0l5.203121 -13.359375l2.84375 0l5.359375 13.359375zm-4.96875 -5.28125l-1.84375 -4.953125l-1.796875 4.953125l3.640625 0zm6.394821 5.28125l0 -13.359375l5.6875 0q2.140625 0 3.109375 0.359375q0.96875 0.359375 1.546875 1.28125q0.578125 0.921875 0.578125 2.109375q0 1.5 -0.890625 2.484375q-0.875 0.96875 -2.625 1.234375q0.875 0.5 1.4375 1.125q0.578125 0.609375 1.53125 2.15625l1.640625 2.609375l-3.234375 0l-1.9375 -2.90625q-1.046875 -1.5625 -1.4375 -1.96875q-0.375 -0.40625 -0.8125 -0.546875q-0.421875 -0.15625 -1.34375 -0.15625l-0.546875 0l0 5.578125l-2.703125 0zm2.703125 -7.703125l2.0 0q1.9375 0 2.421875 -0.15625q0.484375 -0.171875 0.75 -0.578125q0.28125 -0.40625 0.28125 -1.0q0 -0.671875 -0.359375 -1.078125q-0.359375 -0.421875 -1.015625 -0.53125q-0.328125 -0.046875 -1.96875 -0.046875l-2.109375 0l0 3.390625zm10.754196 -5.65625l4.9375 0q1.65625 0 2.53125 0.265625q1.1875 0.34375 2.015625 1.234375q0.84375 0.875 1.28125 2.15625q0.4375 1.28125 0.4375 3.15625q0 1.640625 -0.40625 2.84375q-0.5 1.453125 -1.4375 2.359375q-0.703125 0.671875 -1.890625 1.0625q-0.890625 0.28125 -2.390625 0.28125l-5.078125 0l0 -13.359375zm2.703125 2.265625l0 8.84375l2.015625 0q1.125 0 1.625 -0.125q0.65625 -0.171875 1.078125 -0.5625q0.4375 -0.390625 0.703125 -1.28125q0.28125 -0.90625 0.28125 -2.453125q0 -1.546875 -0.28125 -2.375q-0.265625 -0.828125 -0.765625 -1.28125q-0.484375 -0.46875 -1.234375 -0.640625q-0.5625 -0.125 -2.21875 -0.125l-1.203125 0zm12.676071 11.09375l-3.1875 -13.359375l2.765625 0l2.015625 9.171875l2.4375 -9.171875l3.203125 0l2.34375 9.328125l2.046875 -9.328125l2.71875 0l-3.25 13.359375l-2.859375 0l-2.65625 -9.984375l-2.65625 9.984375l-2.921875 0zm26.734962 0l-2.9375 0l-1.171875 -3.03125l-5.3281326 0l-1.109375 3.03125l-2.859375 0l5.203125 -13.359375l2.84375 0l5.3593826 13.359375zm-4.96875 -5.28125l-1.8437576 -4.953125l-1.796875 4.953125l3.6406326 0zm6.394821 5.28125l0 -13.359375l5.6875 0q2.140625 0 3.109375 0.359375q0.96875 0.359375 1.546875 1.28125q0.578125 0.921875 0.578125 2.109375q0 1.5 -0.890625 2.484375q-0.875 0.96875 -2.625 1.234375q0.875 0.5 1.4375 1.125q0.578125 0.609375 1.53125 2.15625l1.640625 2.609375l-3.234375 0l-1.9375 -2.90625q-1.046875 -1.5625 -1.4375 -1.96875q-0.375 -0.40625 -0.8125 -0.546875q-0.421875 -0.15625 -1.34375 -0.15625l-0.546875 0l0 5.578125l-2.703125 0zm2.703125 -7.703125l2.0 0q1.9375 0 2.421875 -0.15625q0.484375 -0.171875 0.75 -0.578125q0.28125 -0.40625 0.28125 -1.0q0 -0.671875 -0.359375 -1.078125q-0.359375 -0.421875 -1.015625 -0.53125q-0.328125 -0.046875 -1.96875 -0.046875l-2.109375 0l0 3.390625zm10.769821 7.703125l0 -13.359375l9.90625 0l0 2.265625l-7.21875 0l0 2.953125l6.71875 0l0 2.25l-6.71875 0l0 3.640625l7.46875 0l0 2.25l-10.15625 0z" fill-rule="nonzero"/><path fill="#082336" d="m72.96706 82.2318l5.34375 0q1.59375 0 2.359375 0.140625q0.78125 0.125 1.390625 0.546875q0.625 0.421875 1.03125 1.125q0.40625 0.6875 0.40625 1.546875q0 0.9375 -0.5 1.734375q-0.5 0.78125 -1.375 1.171875q1.21875 0.359375 1.875 1.21875q0.65625 0.84375 0.65625 2.0q0 0.921875 -0.421875 1.78125q-0.421875 0.859375 -1.15625 1.375q-0.734375 0.515625 -1.796875 0.625q-0.6875 0.078125 -3.265625 0.09375l-4.546875 0l0 -13.359375zm2.703125 2.234375l0 3.078125l1.765625 0q1.578125 0 1.953125 -0.046875q0.703125 -0.078125 1.09375 -0.46875q0.40625 -0.40625 0.40625 -1.046875q0 -0.625 -0.34375 -1.0q-0.34375 -0.390625 -1.015625 -0.484375q-0.40625 -0.03125 -2.3125 -0.03125l-1.546875 0zm0 5.296875l0 3.578125l2.5 0q1.453125 0 1.84375 -0.078125q0.609375 -0.109375 0.984375 -0.53125q0.375 -0.421875 0.375 -1.140625q0 -0.59375 -0.296875 -1.015625q-0.28125 -0.421875 -0.84375 -0.609375q-0.546875 -0.203125 -2.390625 -0.203125l-2.171875 0zm10.754196 -7.53125l2.6875 0l0 7.234375q0 1.71875 0.109375 2.234375q0.171875 0.828125 0.8125 1.328125q0.65625 0.484375 1.78125 0.484375q1.15625 0 1.734375 -0.46875q0.59375 -0.46875 0.703125 -1.140625q0.125 -0.6875 0.125 -2.28125l0 -7.390625l2.6875 0l0 7.015625q0 2.40625 -0.21875 3.40625q-0.21875 0.984375 -0.8125 1.671875q-0.578125 0.6875 -1.5625 1.09375q-0.984375 0.40625 -2.5625 0.40625q-1.921875 0 -2.90625 -0.4375q-0.984375 -0.453125 -1.5625 -1.15625q-0.578125 -0.703125 -0.75 -1.484375q-0.265625 -1.140625 -0.265625 -3.390625l0 -7.125zm16.988571 13.359375l0 -5.625l-4.890625 -7.734375l3.171875 0l3.140625 5.28125l3.078125 -5.28125l3.109375 0l-4.921875 7.75l0 5.609375l-2.6875 0zm8.943573 0l0 -13.359375l9.90625 0l0 2.265625l-7.21875 0l0 2.953125l6.71875 0l0 2.25l-6.71875 0l0 3.640625l7.46875 0l0 2.25l-10.15625 0zm12.443573 0l0 -13.359375l5.6875 0q2.140625 0 3.109375 0.359375q0.96875 0.359375 1.546875 1.28125q0.578125 0.921875 0.578125 2.109375q0 1.5 -0.890625 2.484375q-0.875 0.96875 -2.625 1.234375q0.875 0.5 1.4375 1.125q0.578125 0.609375 1.53125 2.15625l1.640625 2.609375l-3.234375 0l-1.9375 -2.90625q-1.046875 -1.5625 -1.4375 -1.96875q-0.375 -0.40625 -0.8125 -0.546875q-0.421875 -0.15625 -1.34375 -0.15625l-0.546875 0l0 5.578125l-2.703125 0zm2.703125 -7.703125l2.0 0q1.9375 0 2.421875 -0.15625q0.484375 -0.171875 0.75 -0.578125q0.28125 -0.40625 0.28125 -1.0q0 -0.671875 -0.359375 -1.078125q-0.359375 -0.421875 -1.015625 -0.53125q-0.328125 -0.046875 -1.96875 -0.046875l-2.109375 0l0 3.390625z" fill-rule="nonzero"/></g></svg>