<?xml version="1.0" ?><!DOCTYPE svg  PUBLIC '-//W3C//DTD SVG 1.1//EN'  'http://www.w3.org/Graphics/SVG/1.1/DTD/svg11.dtd'><svg enable-background="new 0 0 21 21" height="21px" id="Layer_1" version="1.1" viewBox="0 0 21 21" width="21px" xml:space="preserve" xmlns="http://www.w3.org/2000/svg" xmlns:xlink="http://www.w3.org/1999/xlink"><g id="icon"><path d="M5.485,7.451C7.702,7.451,9.5,9.248,9.5,11.466s-1.798,4.015,-4.015,4.015s-4.015,-1.798,-4.015,-4.015S3.267,7.451,5.485,7.451zM5.62,15.66l1.088,3.875L7.872,18.4l1.625,-0.019l-1.862,-3.323M3.333,14.977L1.47,18.3l1.625,0.019l1.163,1.135l1.088,-3.875M7.73,11.285c-0.083,-1.124,-0.995,-2.018,-2.127,-2.074" fill="none" stroke="#434A54" stroke-linecap="round" stroke-linejoin="round" stroke-miterlimit="1" stroke-width="1"/><path d="M19.572,4.07c-0.022,-0.133,-0.552,-2.57,-2.735,-2.57l-8.766,0c-0.842,0,-0.807,0.147,-0.259,0.635c1.065,0.947,1.37,2.056,1.374,2.073c0.034,0.17,0.178,0.293,0.344,0.293h9.691c0.043,0,0.087,-0.006,0.127,-0.022C19.515,4.409,19.599,4.236,19.572,4.07z" fill="none" stroke="#434A54" stroke-linecap="round" stroke-linejoin="round" stroke-miterlimit="1" stroke-width="1"/><path d="M11.2,17.5c2.716,0,5.63,0,5.663,0c0.115,0,2.638,-0.358,2.638,-3.653c-0.007,-0.992,-0.74,-2.723,-1.516,-4.237c-0.66,-1.288,-1.343,-2.509,-1.637,-3.654" fill="none" stroke="#434A54" stroke-linecap="round" stroke-linejoin="round" stroke-miterlimit="1" stroke-width="1"/><path d="M7.834,1.5c-1.962,0,-3.358,1.215,-3.358,3.186c0,0.241,0.031,0.691,0.087,0.949" fill="none" stroke="#434A54" stroke-linecap="round" stroke-linejoin="round" stroke-miterlimit="1" stroke-width="1"/><path d="M11.1,8.5h3M11.7,10.5h3.3M11.7,12.5h4.3M11.3,14.5h5.5" fill="none" stroke="#434A54" stroke-linecap="round" stroke-linejoin="round" stroke-miterlimit="1" stroke-width="1"/></g></svg>