<?xml version="1.0" ?><!DOCTYPE svg  PUBLIC '-//W3C//DTD SVG 1.1//EN'  'http://www.w3.org/Graphics/SVG/1.1/DTD/svg11.dtd'><svg enable-background="new 0 0 21 21" height="21px" id="Layer_1" version="1.1" viewBox="0 0 21 21" width="21px" xml:space="preserve" xmlns="http://www.w3.org/2000/svg" xmlns:xlink="http://www.w3.org/1999/xlink"><g id="icon"><path d="M10.642,19.5H2.358c-0.472,0,-0.858,-0.386,-0.858,-0.858v-5.283c0,-0.472,0.386,-0.858,0.858,-0.858h8.283c0.472,0,0.858,0.386,0.858,0.858v5.283C11.5,19.114,11.114,19.5,10.642,19.5zM9.5,12.3v-1.703C9.5,8.894,8.15,7.5,6.5,7.5h0c-1.65,0,-3,1.394,-3,3.097V12.3M6.5,16.5v-1" fill="none" stroke="#434A54" stroke-linecap="round" stroke-linejoin="round" stroke-miterlimit="1" stroke-width="1"/><path d="M3.5,6.12V2.831C3.5,2.096,4.096,1.5,4.831,1.5h13.338c0.735,0,1.331,0.596,1.331,1.331v10.338c0,0.735,-0.596,1.331,-1.331,1.331H13.64" fill="none" stroke="#434A54" stroke-linecap="round" stroke-linejoin="round" stroke-miterlimit="1" stroke-width="1"/><line fill="none" stroke="#434A54" stroke-linecap="round" stroke-linejoin="round" stroke-miterlimit="1" stroke-width="1" x1="13.66" x2="16.1" y1="16.5" y2="16.5"/></g></svg>