<?xml version="1.0" ?><!DOCTYPE svg  PUBLIC '-//W3C//DTD SVG 1.1//EN'  'http://www.w3.org/Graphics/SVG/1.1/DTD/svg11.dtd'><svg enable-background="new 0 0 21 21" height="21px" id="Layer_1" version="1.1" viewBox="0 0 21 21" width="21px" xml:space="preserve" xmlns="http://www.w3.org/2000/svg" xmlns:xlink="http://www.w3.org/1999/xlink"><g id="icon"><path d="M5.485,7.451C7.702,7.451,9.5,9.248,9.5,11.466s-1.798,4.015,-4.015,4.015s-4.015,-1.798,-4.015,-4.015S3.267,7.451,5.485,7.451zM5.62,15.615l1.088,3.875l1.163,-1.135l1.625,-0.019l-1.862,-3.323M3.333,15.013L1.47,18.336l1.625,0.019l1.163,1.135l1.088,-3.875M7.73,11.285c-0.083,-1.124,-0.995,-2.018,-2.127,-2.074" fill="none" stroke="#434A54" stroke-linecap="round" stroke-linejoin="round" stroke-miterlimit="1" stroke-width="1"/><path d="M10.5,16.5h3.732c0.148,0,0.267,-0.116,0.267,-0.26V13.5h4.733c0.147,0,0.267,-0.117,0.267,-0.261V1.761c0,-0.144,-0.119,-0.261,-0.267,-0.261H3.767C3.619,1.5,3.5,1.617,3.5,1.761V5.62M10.64,13.5H15.5M12.5,13.5v3M10.92,7.5H12.5V3.5H5.5v1.84M11.12,11.5H12.5V9.5h-0.96M17.5,3.5h-3M17.5,5.5h-3M17.5,7.5h-3M17.5,9.5h-3M17.5,11.5h-3" fill="none" stroke="#434A54" stroke-linecap="round" stroke-linejoin="round" stroke-miterlimit="1" stroke-width="1"/></g></svg>